<?xml version="1.0" encoding="UTF-8"?>
<svg version="1.1" viewBox="0 0 125 10.645406" xml:space="preserve" xmlns="http://www.w3.org/2000/svg" xmlns:cc="http://creativecommons.org/ns#" xmlns:dc="http://purl.org/dc/elements/1.1/" xmlns:rdf="http://www.w3.org/1999/02/22-rdf-syntax-ns#" xmlns:xlink="http://www.w3.org/1999/xlink"><metadata><rdf:RDF><cc:Work rdf:about=""><dc:format>image/svg+xml</dc:format><dc:type rdf:resource="http://purl.org/dc/dcmitype/StillImage"/><dc:title/></cc:Work></rdf:RDF></metadata><style type="text/css">
	.st0{clip-path:url(#a);fill:#1D1D1B;}
</style><g transform="translate(-621 -379.35)"><defs><rect id="b" x="621" y="379.3" width="125" height="10.7"/></defs><clipPath id="a"><use width="100%" height="100%" xlink:href="#b"/></clipPath><path class="st0" d="m628.6 384.5l0.1 0.1 0.1-0.1c0-0.1 0-0.1-0.1-0.1l-0.1 0.1m-7.6-2.7c0.4-0.2 0.8-0.5 1.2-0.7 1-0.3 1.6 0 1.7 1 0.1 0.7 0 1.3-0.2 2 0 0.1-0.1 0.3 0 0.5 0.3-0.4 0.6-0.8 0.8-1.2 0.5-0.7 1.1-1.4 1.8-1.9 0.3-0.2 0.5-0.3 0.8-0.4 1.1-0.3 1.7 0.2 1.7 1.3 0 0.6-0.1 1.1-0.2 1.6 0 0.1-0.2 0.3 0 0.4s0.2-0.2 0.3-0.3c0.5-0.8 1.1-1.5 1.8-2.2 0.5-0.4 1-0.8 1.7-0.9s1.2 0.2 1.4 0.9c0.2 1.1-0.1 2.1-0.3 3.1s-0.5 2-0.7 3c0 0.1-0.1 0.3-0.1 0.4 0 0.6 0.2 0.8 0.9 0.6 0.2-0.1 0.4-0.5 0.6-0.1 0.1 0.3-0.3 0.4-0.4 0.5-0.2 0.1-0.4 0.3-0.6 0.3-0.9 0.4-1.6-0.1-1.6-1.1s0.4-1.9 0.6-2.8c0.2-1 0.5-1.9 0.5-2.9 0-0.3 0-0.6-0.3-0.8s-0.6 0.1-0.8 0.2c-0.8 0.6-1.4 1.3-2 2.1-1 1.5-1.7 3.1-2.1 4.8-0.1 0.5-0.4 0.6-0.7 0.5-0.4-0.1-0.5-0.4-0.4-0.7 0.4-1.6 0.8-3.3 1.1-4.9 0.1-0.4 0.2-0.9 0.2-1.4 0-0.7-0.3-0.9-0.9-0.5-0.4 0.2-0.7 0.5-1 0.8-1.7 1.8-2.8 3.9-3.4 6.2-0.1 0.5-0.3 0.6-0.7 0.5s-0.4-0.5-0.3-0.8c0.3-1.4 0.7-2.8 1.1-4.3 0.2-0.7 0.4-1.4 0.4-2.2s-0.2-1-0.9-0.6c-0.3 0.2-0.6 0.1-0.8-0.1v0.1z" clip-path="url(#a)" fill="#1d1d1b"/><path class="st0" d="m746 381.5c-0.7 0-0.8 0.2-1 0.9-0.3 1.9-0.7 3.9-1 5.8 0 0.2 0 0.3-0.1 0.5 0 0.4 0 0.6 0.5 0.7 0.2 0 0.2 0.1 0.2 0.3s-0.2 0.2-0.3 0.2h-2.4c-0.1 0-0.2 0-0.2-0.2s0.1-0.2 0.2-0.2c0.6 0 0.7-0.4 0.8-0.9 0.4-2 0.7-4.1 1-6.1 0.1-0.5 0-0.8-0.6-0.9-0.2 0-0.3-0.1-0.2-0.3 0-0.2 0.2-0.2 0.3-0.2h2.7v0.4z" clip-path="url(#a)" fill="#1d1d1b"/><path class="st0" d="m660.9 387.7c0.2-1.4 0.5-2.8 0.7-4.1 0.1-0.4 0.1-0.9 0.2-1.3 0.1-0.5-0.1-0.8-0.6-0.8-0.2 0-0.3 0-0.3-0.3 0-0.2 0.2-0.2 0.3-0.2h2c0.1 0 0.3-0.1 0.3 0.2 0 0.2-0.1 0.2-0.3 0.2-0.4 0-0.5 0.3-0.6 0.6-0.4 2.1-0.8 4.3-1.2 6.4-0.1 0.4 0.2 0.6 0.4 0.8 0.1 0.1 0.2 0.2 0.2 0.3 0 0.2-0.2 0.1-0.3 0.2-0.8 0.2-1.3-0.1-1.7-0.8-1-1.7-2.1-3.4-3.2-5-0.1-0.1-0.2-0.3-0.4-0.5-0.2 1.3-0.4 2.4-0.6 3.6-0.1 0.5-0.2 1-0.3 1.6s0 0.7 0.6 0.8c0.2 0 0.4-0.1 0.4 0.2s-0.3 0.2-0.4 0.2h-2.1c-0.1 0-0.3 0.1-0.3-0.2 0-0.2 0.2-0.2 0.3-0.2 0.5 0 0.7-0.3 0.8-0.7 0.3-1.9 0.7-3.9 1-5.8 0.1-0.7-0.2-1.2-0.9-1.3-0.2 0-0.4 0-0.3-0.3 0-0.3 0.2-0.1 0.4-0.1 1.2-0.3 2 0.3 2.6 1.4 0.9 1.7 2 3.2 3 4.8 0.1-0.1 0.2 0.1 0.3 0.3" clip-path="url(#a)" fill="#1d1d1b"/><path class="st0" d="m722 384.8c0-0.8-0.1-1.5-0.6-2.2-0.8-1.2-2.2-1.5-3.4-0.6-1.6 1.2-2.3 4.1-1.5 5.9 0.8 1.6 2.6 2 3.9 0.7 1.1-1 1.5-2.4 1.6-3.8m-7.3 1.4c0-2.2 1.3-4.2 3.2-4.9 1.5-0.6 3-0.5 4.3 0.5 1.2 1 1.4 2.3 1.2 3.8-0.4 2.5-2.2 4.3-4.5 4.4-2.5 0.1-4.2-1.4-4.2-3.8" clip-path="url(#a)" fill="#1d1d1b"/><path class="st0" d="m647 385c0-0.8-0.1-1.4-0.4-2-0.8-1.7-2.6-2-3.9-0.7-1.4 1.4-1.8 3.1-1.4 5 0.3 1.2 1.3 1.9 2.8 2 1.2 0.1 1.9-0.4 2.4-1.6 0.4-1 0.5-1.9 0.5-2.7m-2.3-4.1c2.5 0 3.9 1.6 3.8 4.1-0.1 2.3-1.7 4.4-3.9 4.9-2.9 0.7-5.1-1.2-4.8-4.1 0.2-2.8 2.4-4.9 4.9-4.9" clip-path="url(#a)" fill="#1d1d1b"/><path class="st0" d="m731.4 385.5c1.1-0.3 1.9-0.7 2.3-1.2s0.6-1.1 0.3-1.7-1-1-1.6-1c-0.2 0-0.3 0-0.4 0.2-0.1 1.2-0.3 2.4-0.6 3.7m0.4-4.5c0.8 0 1.5-0.1 2.3 0.1 1.2 0.3 1.7 1.4 1.1 2.5-0.4 0.8-1 1.3-1.8 1.7-0.2 0.1-0.3 0.1-0.2 0.4 0.5 0.9 1 1.8 1.6 2.5 0.4 0.4 0.8 0.9 1.4 1 0.2 0 0.2 0.1 0.2 0.3s-0.1 0.2-0.3 0.2c-0.8 0.1-1.4-0.2-2-0.7-0.9-0.8-1.4-1.8-2-2.8-0.1-0.1-0.1-0.4-0.3-0.3s-0.6 0.1-0.6 0.4c-0.1 0.7-0.2 1.5-0.4 2.2-0.1 0.3 0 0.6 0.4 0.6 0.2 0 0.3 0.1 0.2 0.3 0 0.2-0.1 0.2-0.3 0.2h-2.3c-0.1 0-0.3 0-0.3-0.2s0.1-0.2 0.2-0.2c0.5 0 0.6-0.4 0.7-0.8 0.4-2.1 0.7-4.2 1.1-6.3 0.1-0.5-0.1-0.7-0.6-0.8-0.2 0-0.3-0.1-0.3-0.3s0.2-0.2 0.3-0.2c0.9 0.2 1.4 0.2 1.9 0.2" clip-path="url(#a)" fill="#1d1d1b"/><path class="st0" d="m681.4 385.3c1.7 0.2 3.7-1.1 4.1-2.6 0.1-0.3 0.2-0.6-0.1-0.9-0.2-0.2-0.6-0.2-0.9-0.1-1.3 0.4-2.9 2.1-3.1 3.6m-1.6 1.7c0-2.7 2.2-5.5 4.9-6.1 0.2 0 0.3-0.1 0.5-0.1 1.3 0 2 0.9 1.6 2.1-0.2 0.7-0.7 1.3-1.3 1.7-1.1 0.8-2.4 1.2-3.7 1.3-0.5 0-0.6 0.2-0.7 0.7 0 1.7 1 2.6 2.6 2.2 0.8-0.2 1.5-0.5 2.3-0.9 0.2-0.1 0.4-0.2 0.5 0.1s-0.1 0.3-0.2 0.4c-1 0.6-2 1.2-3.2 1.4-1.9 0.4-3.1-0.5-3.3-2.5v-0.3" clip-path="url(#a)" fill="#1d1d1b"/><path class="st0" d="m694.5 389.9c-0.3 0-0.6-0.1-0.8-0.1-0.3-0.1-0.6-0.2-1 0-0.3 0.1-0.5 0-0.4-0.4 0.1-0.5 0.1-1 0.2-1.6 0-0.2 0-0.4 0.3-0.4s0.3 0.2 0.3 0.4c0.3 1.3 1.4 1.8 2.4 1.2 0.8-0.5 1-1.6 0.2-2.4-0.4-0.5-1-0.9-1.4-1.3-0.6-0.6-1-1.3-0.9-2.2 0.2-1.6 1.8-2.5 3.3-2 0.3 0.1 0.6 0.2 0.9 0 0.2-0.1 0.4 0 0.3 0.3-0.1 0.5-0.1 1-0.2 1.5 0 0.1 0 0.3-0.2 0.4-0.2 0-0.3-0.1-0.4-0.3-0.1-0.3-0.2-0.6-0.4-0.8-0.4-0.5-0.9-0.7-1.4-0.6-0.5 0.2-0.9 0.8-0.8 1.4s0.3 1 0.7 1.4c0.3 0.3 0.6 0.5 0.9 0.8 1.1 0.9 1.4 1.9 1.1 2.9s-1.4 1.7-2.7 1.8" clip-path="url(#a)" fill="#1d1d1b"/><path class="st0" d="m705.7 389.8c-0.3 0-0.6 0-0.9-0.1s-0.5-0.1-0.8 0-0.5 0.1-0.4-0.3c0.1-0.5 0.1-1.1 0.2-1.6 0-0.2 0-0.3 0.3-0.3s0.3 0.2 0.3 0.4c0.2 1 0.8 1.5 1.6 1.5 0.6 0 1.1-0.3 1.4-0.9s0.1-1.1-0.2-1.6c-0.4-0.5-1-0.9-1.5-1.4-0.6-0.6-1-1.3-1-2.1 0.1-1.6 1.7-2.7 3.3-2.2 0.3 0.1 0.6 0.3 1 0 0.1-0.1 0.4-0.1 0.3 0.3-0.1 0.5-0.1 1.1-0.2 1.6 0 0.1 0 0.3-0.2 0.3s-0.3 0-0.4-0.2c-0.1-0.3-0.2-0.7-0.5-0.9-0.3-0.4-0.8-0.6-1.3-0.5s-0.8 0.6-0.8 1.2 0.2 1.2 0.7 1.6c0.3 0.3 0.6 0.5 0.9 0.8 1.1 0.9 1.4 1.9 1 2.9-0.3 0.8-1.5 1.5-2.8 1.5" clip-path="url(#a)" fill="#1d1d1b"/><path class="st0" d="m672.7 379.4c-0.1 0.6-0.2 1.1-0.3 1.7h1.6c0.3 0 0.4 0.1 0.4 0.4s-0.1 0.4-0.4 0.4h-1.4c-0.2 0-0.4 0-0.4 0.3-0.3 1.7-0.7 3.4-1 5.1 0 0.2 0 0.4-0.1 0.6 0 0.9 0.4 1.3 1.3 1 0.6-0.2 1.1-0.5 1.6-0.8 0.1-0.1 0.2-0.1 0.3 0s0.2 0.2 0 0.3c-0.9 0.6-1.7 1.3-2.8 1.5-0.9 0.2-1.4-0.2-1.6-1.1s0.1-1.8 0.3-2.7c0.2-1.3 0.5-2.6 0.8-3.9 0.1-0.3 0-0.4-0.3-0.4h-0.5c-0.3 0-0.4 0-0.5-0.4 0-0.4 0.2-0.4 0.5-0.4 1 0 1 0 1.2-0.9 0.3-0.8 0.3-0.8 1.3-0.7" clip-path="url(#a)" fill="#1d1d1b"/></g></svg>
