<?xml version="1.0" encoding="UTF-8"?>
<svg version="1.1" viewBox="0 0 110 76" xml:space="preserve" xmlns="http://www.w3.org/2000/svg" xmlns:cc="http://creativecommons.org/ns#" xmlns:dc="http://purl.org/dc/elements/1.1/" xmlns:rdf="http://www.w3.org/1999/02/22-rdf-syntax-ns#" xmlns:xlink="http://www.w3.org/1999/xlink"><metadata><rdf:RDF><cc:Work rdf:about=""><dc:format>image/svg+xml</dc:format><dc:type rdf:resource="http://purl.org/dc/dcmitype/StillImage"/><dc:title/></cc:Work></rdf:RDF></metadata>
<style type="text/css">
	.st0{clip-path:url(#a);fill:#0D549E;}
	.st1{clip-path:url(#a);fill:#E32E21;}
</style>
<g transform="translate(-279,-184.6)"><defs><rect id="b" x="279" y="184.5" width="110" height="76"/></defs><clipPath id="a"><use width="100%" height="100%" xlink:href="#b"/></clipPath><path class="st0" d="m364.3 226.9c-1.5 6.1-3 12.1-5.1 18-0.2 0.4-0.5 0.8-0.6 1.3-0.4 0.1-0.3 0.4-0.3 0.7-0.5 0-0.6 0.5-1 0.6-1 0.4-1.9 0.7-2.9 1-1.6 0.5-2.8 0-4.1-0.7-0.2-0.3 0-0.5 0.1-0.7 1.4-3.7 2.8-7.5 4.1-11.2 0.7-1.9 0.8-3.9 1.2-5.9 0-0.3 0.1-0.5 0.1-0.8 0.3 0 0.3-0.2 0.3-0.5 0-0.5-0.1-1.1 0.1-1.6 0.4-1.3 0.3-2.7 0.5-4 0.2-1.1-0.2-2.3 0.3-3.4 0.1-0.3 0-0.7-0.3-1-1.3-1.3-2.5-2.8-3.8-4.1-0.4-0.4-0.7-0.4-1.1 0-0.8 0.8-1.5 1.6-2.4 2.3-1.2 1-2.4 1.8-3.6 2.7-0.9 0.7-1.8 1.4-2.7 2l-4.8 3c-1.1 0.7-1.6 0.8-2 0-0.6-1-1.6-1.7-2.1-2.7-0.6-0.4-0.5-0.7 0.1-1.1 4.6-3.2 8.2-7.2 11.5-11.6 4.8-6.5 8.1-13.6 9.6-21.5 0.2-1 0.7-2 0.6-3.1h6.9c-0.1 1.4-0.3 2.7-0.4 4.1-0.5 5.2-1.6 10.3-3.2 15.3-0.1 0.4-0.1 0.6 0.2 0.9 5.4 5.5 10.9 10.9 17.1 15.5 1.5 1.1 3.2 1.6 4.9 2.2 2.2 0.7 4.5 1.3 6.8 1.8 0.6 0.1 0.8 0.4 0.9 1 0 0.9 0.1 1.8 0.3 2.6 0.2 0.9-0.4 1.6-0.4 2.4-0.4 0.1-0.3 0.4-0.3 0.7-0.2-0.1-0.3 0.1-0.4 0.3-0.7 1.2-1.1 2.9-3.1 1.9h-0.2c-0.7 0-1.3-0.2-1.9-0.4-1.1-0.3-2.3-0.5-3.4-0.8s-2.3-0.3-3.3-0.7c-0.5-0.2-1-0.1-1.5-0.4-0.9-0.6-1.9-1.1-2.9-1.6-2.3-1.2-4.5-2.5-6.6-3.9-0.4-0.2-0.6 0-0.6 0.2-0.3 0.3-0.7 0.7-0.6 1.2" clip-path="url(#a)" fill="#0d549e"/><path class="st1" d="m279.1 254.3c-0.5-1.1 0.3-1.5 1-2 1.8-1.4 3.5-3 5.2-4.6 2.3-2.1 3.8-4.6 5.1-7.4 3.1-6.7 5.3-13.7 7.6-20.7 0.6-1.3 0.7-1.4-0.4-2.3-0.8-0.7-1.5-1.5-2.3-2.3-1.2-1.2-2.3-2.5-3.3-3.8-1.4-1.8-2.8-3.6-4.1-5.6-0.9-1.4-1.9-2.7-2.6-4.1-0.6-0.9-0.6-0.9 0.3-1.3 1.7-0.9 3.5-1.8 5.2-2.7 0.5-0.3 0.7-0.1 1 0.3 3.9 5.2 8.4 9.8 13.7 13.5 7 4.9 14.5 8.4 22.8 10.3 1.1 0.2 2.2 0.4 3.3 0.5 0.2 0 0.6 0 0.5 0.4-0.4 1.8-0.7 3.6-1.3 5.4-1.8 0.1-3.5-0.4-5.2-0.3-1.2 0-2.4-0.3-3.6-0.4-0.7-0.1-1.6-0.1-2.3-0.3-1.3-0.4-2.8-0.5-4.1-0.8-1.6-0.4-3.2-0.7-4.7-1.2-0.3-0.1-0.8-0.3-1 0-0.2 0.4-0.5 0.8-0.4 1.3-0.5 1.5-0.9 3.1-1.4 4.6-0.2 0.5-0.2 1 0.1 1.5 2.8 4.7 5.8 9.4 9.4 13.6 1.6 1.9 3.5 3.4 5.3 5 1.7 1.6 3.5 3.3 5.2 4.9 1 0.9 1 0.9 0.2 2-0.6 0.7-1.3 1.4-2.3 1.6-0.4 0.1-0.9 0.1-1.3 0.3-1.1 0.4-2.3 0.2-3.4 0.3-0.2 0-0.4-0.1-0.6-0.3-1.5-1-2.7-2.4-4-3.5-1.9-1.6-3.5-3.6-5.2-5.4-2.4-2.6-4.8-5.3-7.1-8-0.9-1.1-1-1.1-1.8 0.1-1.4 2.1-2.7 4.3-4.1 6.4-1.3 1.8-2.5 3.6-4.4 5-2.3 1.8-4.5 3.7-6.7 5.7-1.6 1.4-1.6 1.4-3.3 0.2-0.1-0.1-0.2-0.1-0.3-0.2-1.4-1.1-3-1.9-3.5-3.9-0.4-0.7-0.5-1.4-1.2-1.8" clip-path="url(#a)" fill="#e32e21"/><path class="st1" d="m303.9 201.6c0.5-3.3 2.2-5.7 5.3-6.9 3.1-1.1 5.9-0.7 8.4 1.5s3.2 5 2.5 8.3c-0.1 0.5-0.3 1-0.4 1.5-0.5 0.6-0.9 1.3-1.4 1.9-1.5 1.5-3.2 2.4-5.4 2.6-2.1 0.2-4-0.4-5.7-1.6-2.1-1.6-3.2-3.8-3.1-6.5-0.1-0.3 0.1-0.6-0.2-0.8" clip-path="url(#a)" fill="#e32e21"/><path class="st0" d="m334 196.5c0.6-3.8 3.4-6.4 7.2-6.6 3.4-0.2 6.6 2.3 7.4 5.7 0.4 1.6 0.2 3.1-0.3 4.6-0.5 0.7-0.9 1.5-1.4 2.2-1.3 1.6-3.2 2.2-5.2 2.4-1.6 0.1-3.1-0.4-4.4-1.3-0.9-0.7-1.7-1.5-2.3-2.5-0.9-1.4-1.1-2.9-1-4.5" clip-path="url(#a)" fill="#0d549e"/></g></svg>
